# xmcd
#
# Track frame offsets: 
#        150
#        17451
#        31271
#        50379
#        75684
#        97554
#        116173
#        139564
#        157716
#        169667
#        191861
#        212220
#
# Disc length: 3158 seconds
#
# Revision: 1
# Processed by: cddbd v1.5.1PL0 Copyright (c) Steve Scherf et al.
# Submitted via: ExactAudioCopy v0.95a5
#
DISCID=8b0c540c
DTITLE=Braty Hadjukiny - Wsjo Chiotko
DYEAR=2004
DGENRE=Alternative
TTITLE0=Arividerchi, Roma
TTITLE1=Mis'ku wazhaj
TTITLE2=Zwjozdochka moja
TTITLE3=Oj, lyxo
TTITLE4=Ameryka
TTITLE5=Dzhalizowa dupa
TTITLE6=Mertwyj piwen'
TTITLE7=Pryd' do mene u mostyska
TTITLE8=Rock-n-Roll do rana
TTITLE9=Roksoljana
TTITLE10=Narkomany na horodi
TTITLE11=Chuwaky, wsjo chotko
EXTD=
EXTT0=
EXTT1=
EXTT2=
EXTT3=
EXTT4=
EXTT5=
EXTT6=
EXTT7=
EXTT8=
EXTT9=
EXTT10=
EXTT11=
PLAYORDER=
